<svg width="80" height="24" viewBox="0 0 80 24" fill="none" xmlns="http://www.w3.org/2000/svg">
<path d="M5.328 0.823999V18.84H13.968L13.424 23H0.0800002V0.823999H5.328ZM30.2575 23H25.8735L25.6495 20.856C24.4122 22.648 22.6948 23.544 20.4975 23.544C18.9402 23.544 17.7562 23.0747 16.9455 22.136C16.1562 21.1973 15.7615 19.8853 15.7615 18.2V6.008H20.8175V17.56C20.8175 18.392 20.9455 18.9787 21.2015 19.32C21.4788 19.64 21.8948 19.8 22.4495 19.8C23.5162 19.8 24.4335 19.1387 25.2015 17.816V6.008H30.2575V23ZM41.594 5.464C42.7673 5.464 43.8233 5.63467 44.762 5.976C45.7007 6.31733 46.586 6.84 47.418 7.544L45.242 10.552C44.1753 9.74133 43.098 9.336 42.01 9.336C40.8793 9.336 40.026 9.752 39.45 10.584C38.874 11.416 38.586 12.76 38.586 14.616C38.586 16.408 38.874 17.6773 39.45 18.424C40.026 19.1707 40.858 19.544 41.946 19.544C42.522 19.544 43.0447 19.4587 43.514 19.288C43.9833 19.096 44.5487 18.7973 45.21 18.392L47.418 21.528C45.7327 22.872 43.8233 23.544 41.69 23.544C39.962 23.544 38.4687 23.1813 37.21 22.456C35.9513 21.7093 34.9807 20.6747 34.298 19.352C33.6153 18.008 33.274 16.44 33.274 14.648C33.274 12.856 33.6153 11.2667 34.298 9.88C34.9807 8.49333 35.9513 7.416 37.21 6.648C38.4687 5.85867 39.93 5.464 41.594 5.464ZM62.738 18.072C62.738 18.712 62.8233 19.1813 62.994 19.48C63.186 19.7787 63.4847 20.0027 63.89 20.152L62.834 23.448C61.7887 23.3627 60.9353 23.1387 60.274 22.776C59.6127 22.392 59.1007 21.7947 58.738 20.984C57.6287 22.6907 55.922 23.544 53.618 23.544C51.9327 23.544 50.5887 23.0533 49.586 22.072C48.5833 21.0907 48.082 19.8107 48.082 18.232C48.082 16.376 48.7647 14.9573 50.13 13.976C51.4953 12.9947 53.4687 12.504 56.05 12.504H57.778V11.768C57.778 10.7653 57.5647 10.0827 57.138 9.72C56.7113 9.336 55.9647 9.144 54.898 9.144C54.3433 9.144 53.6713 9.22933 52.882 9.4C52.0927 9.54933 51.282 9.76267 50.45 10.04L49.298 6.712C50.3647 6.30667 51.4527 5.99733 52.562 5.784C53.6927 5.57067 54.738 5.464 55.698 5.464C58.13 5.464 59.9113 5.96533 61.042 6.968C62.1727 7.97067 62.738 9.47467 62.738 11.48V18.072ZM55.09 19.928C56.242 19.928 57.138 19.384 57.778 18.296V15.288H56.53C55.378 15.288 54.514 15.4907 53.938 15.896C53.3833 16.3013 53.106 16.9307 53.106 17.784C53.106 18.4667 53.2767 19 53.618 19.384C53.9807 19.7467 54.4713 19.928 55.09 19.928ZM72.4368 5.464C73.6528 5.464 74.7941 5.64533 75.8608 6.008C76.9274 6.37067 77.8661 6.88267 78.6768 7.544L76.8208 10.392C75.4341 9.51733 74.0368 9.08 72.6288 9.08C71.9674 9.08 71.4554 9.19733 71.0928 9.432C70.7514 9.64533 70.5808 9.95467 70.5808 10.36C70.5808 10.68 70.6554 10.9467 70.8048 11.16C70.9754 11.352 71.3061 11.5547 71.7968 11.768C72.2874 11.9813 73.0448 12.2373 74.0688 12.536C75.8394 13.048 77.1514 13.72 78.0048 14.552C78.8794 15.3627 79.3168 16.4933 79.3168 17.944C79.3168 19.096 78.9861 20.0987 78.3248 20.952C77.6634 21.784 76.7568 22.424 75.6048 22.872C74.4528 23.32 73.1728 23.544 71.7648 23.544C70.3354 23.544 69.0021 23.32 67.7648 22.872C66.5488 22.424 65.5141 21.8053 64.6608 21.016L67.1248 18.264C68.5541 19.3733 70.0581 19.928 71.6368 19.928C72.4048 19.928 73.0021 19.7893 73.4288 19.512C73.8768 19.2347 74.1008 18.84 74.1008 18.328C74.1008 17.9227 74.0154 17.6027 73.8448 17.368C73.6741 17.1333 73.3434 16.92 72.8528 16.728C72.3621 16.5147 71.5834 16.2587 70.5168 15.96C68.8314 15.4693 67.5728 14.7867 66.7408 13.912C65.9088 13.0373 65.4928 11.9493 65.4928 10.648C65.4928 9.66667 65.7701 8.792 66.3248 8.024C66.9008 7.23467 67.7114 6.616 68.7568 6.168C69.8234 5.69867 71.0501 5.464 72.4368 5.464Z" fill="#141414"/>
</svg>
